<svg width="35" height="34" viewBox="0 0 35 34" fill="none" xmlns="http://www.w3.org/2000/svg">
<path d="M17.5 22.6667L22.4583 25.5V19.8333L27.4167 17L22.4583 14.1667V8.5L17.5 11.3333L12.5417 8.5V14.1667L7.58333 17L12.5417 19.8333V25.5L17.5 22.6667Z" fill="white"/>
<path d="M32.375 14.1667L27.4167 17V11.3333L22.4583 8.5L27.4167 5.66667L32.375 8.5V14.1667Z" fill="white"/>
<path d="M32.375 19.8333L27.4167 17V22.6667L22.4583 25.5L27.4167 28.3333L32.375 25.5V19.8333Z" fill="white"/>
<path d="M12.5417 31.1667V25.5L17.5 28.3333L22.4583 25.5V31.1667L17.5 34L12.5417 31.1667Z" fill="white"/>
<path d="M2.625 19.8333L7.58333 17V22.6667L12.5417 25.5L7.58333 28.3333L2.625 25.5V19.8333Z" fill="white"/>
<path d="M2.625 14.1667L7.58333 17V11.3333L12.5417 8.5L7.58333 5.66667L2.625 8.5V14.1667Z" fill="white"/>
<path d="M12.5417 2.83333V8.5L17.5 5.66667L22.4583 8.5V2.83333L17.5 0L12.5417 2.83333Z" fill="white"/>
</svg>
