<svg width="28" height="28" viewBox="0 0 28 28" fill="none" xmlns="http://www.w3.org/2000/svg">
<path fill-rule="evenodd" clip-rule="evenodd" d="M14 1.75C14.4832 1.75 14.875 2.14175 14.875 2.625V5.25C14.875 5.73325 14.4832 6.125 14 6.125C13.5168 6.125 13.125 5.73325 13.125 5.25V2.625C13.125 2.14175 13.5168 1.75 14 1.75ZM6.57538 4.82538C6.91709 4.48367 7.47111 4.48367 7.81282 4.82538L9.66897 6.68153C10.0107 7.02324 10.0107 7.57726 9.66897 7.91897C9.32726 8.26068 8.77324 8.26068 8.43153 7.91897L6.57538 6.06282C6.23367 5.72111 6.23367 5.16709 6.57538 4.82538ZM21.4246 4.82538C21.7663 5.16709 21.7663 5.72111 21.4246 6.06282L19.5685 7.91897C19.2268 8.26068 18.6727 8.26068 18.331 7.91897C17.9893 7.57726 17.9893 7.02324 18.331 6.68153L20.1872 4.82538C20.5289 4.48367 21.0829 4.48367 21.4246 4.82538ZM13.4731 10.0704C13.8369 9.97294 14.2223 10.1192 14.4298 10.4335L20.5281 19.6698C20.7231 19.9652 20.721 20.3489 20.5228 20.6421C20.3246 20.9352 19.9692 21.0801 19.6225 21.0092L17.1757 20.5085L18.3945 25.0573C18.5196 25.5241 18.2426 26.0039 17.7758 26.129C17.309 26.254 16.8293 25.977 16.7042 25.5102L15.4854 20.9615L13.617 22.6184C13.3522 22.8532 12.972 22.9054 12.6538 22.7506C12.3355 22.5958 12.1418 22.2645 12.163 21.9113L12.8262 10.8632C12.8487 10.4872 13.1093 10.1679 13.4731 10.0704ZM3.5 12.25C3.5 11.7668 3.89175 11.375 4.375 11.375H7C7.48325 11.375 7.875 11.7668 7.875 12.25C7.875 12.7333 7.48325 13.125 7 13.125H4.375C3.89175 13.125 3.5 12.7333 3.5 12.25ZM20.125 12.25C20.125 11.7668 20.5168 11.375 21 11.375H23.625C24.1082 11.375 24.5 11.7668 24.5 12.25C24.5 12.7333 24.1082 13.125 23.625 13.125H21C20.5168 13.125 20.125 12.7333 20.125 12.25ZM9.66897 16.581C10.0107 16.9227 10.0107 17.4768 9.66897 17.8185L7.81282 19.6746C7.47111 20.0163 6.91709 20.0163 6.57538 19.6746C6.23367 19.3329 6.23367 18.7789 6.57538 18.4372L8.43153 16.581C8.77324 16.2393 9.32726 16.2393 9.66897 16.581Z" fill="white"/>
</svg>
