<svg width="44" height="44" viewBox="0 0 44 44" fill="none" xmlns="http://www.w3.org/2000/svg">
<path fill-rule="evenodd" clip-rule="evenodd" d="M13.75 9.625C13.75 6.58743 16.2124 4.125 19.25 4.125H24.75C27.7876 4.125 30.25 6.58743 30.25 9.625V10.0008C31.9595 10.1573 33.6552 10.3619 35.3357 10.6134C38.0015 11.0122 39.875 13.3313 39.875 15.9604V21.5213C39.875 23.7417 38.53 25.834 36.3252 26.567C31.8204 28.0647 27.0035 28.875 22.0001 28.875C16.9966 28.875 12.1796 28.0646 7.67482 26.5669C5.47001 25.8339 4.125 23.7417 4.125 21.5213V15.9604C4.125 13.3313 5.9985 11.0123 8.66426 10.6134C10.3448 10.3619 12.0405 10.1573 13.75 10.0008V9.625ZM27.5 9.625V9.79151C25.6807 9.68103 23.8468 9.625 22 9.625C20.1532 9.625 18.3193 9.68103 16.5 9.79151V9.625C16.5 8.10622 17.7312 6.875 19.25 6.875H24.75C26.2688 6.875 27.5 8.10622 27.5 9.625ZM22 24.75C22.7594 24.75 23.375 24.1344 23.375 23.375C23.375 22.6156 22.7594 22 22 22C21.2406 22 20.625 22.6156 20.625 23.375C20.625 24.1344 21.2406 24.75 22 24.75Z" fill="white"/>
<path d="M5.5 33.7333V28.6072C5.9089 28.8315 6.34511 29.0229 6.80723 29.1765C11.5883 30.766 16.698 31.625 22.0001 31.625C27.3021 31.625 32.4118 30.7661 37.1927 29.1766C37.6549 29.0229 38.0911 28.8315 38.5 28.6072V33.7333C38.5 36.3951 36.5801 38.7337 33.8743 39.093C29.9888 39.6088 26.0251 39.875 22 39.875C17.9749 39.875 14.0112 39.6088 10.1257 39.093C7.41994 38.7337 5.5 36.3951 5.5 33.7333Z" fill="white"/>
</svg>
