<svg width="44" height="44" viewBox="0 0 44 44" fill="none" xmlns="http://www.w3.org/2000/svg">
<path fill-rule="evenodd" clip-rule="evenodd" d="M2.75 8.25C2.75 5.21243 5.21243 2.75 8.25 2.75H10.7646C12.342 2.75 13.7169 3.82352 14.0995 5.35378L16.1268 13.463C16.4622 14.8047 15.9609 16.2168 14.8544 17.0467L12.4828 18.8254C12.2365 19.0101 12.183 19.2806 12.2522 19.4694C14.3339 25.1524 18.8476 29.6661 24.5306 31.7478C24.7194 31.817 24.9899 31.7635 25.1746 31.5172L26.9533 29.1456C27.7832 28.0391 29.1953 27.5378 30.537 27.8732L38.6462 29.9005C40.1765 30.2831 41.25 31.658 41.25 33.2354V35.75C41.25 38.7876 38.7876 41.25 35.75 41.25H31.625C15.6778 41.25 2.75 28.3222 2.75 12.375V8.25Z" fill="white"/>
</svg>
