<svg width="45" height="44" viewBox="0 0 45 44" fill="none" xmlns="http://www.w3.org/2000/svg">
<path fill-rule="evenodd" clip-rule="evenodd" d="M17.1667 8.25C17.7807 8.25 18.3202 8.65697 18.4888 9.24726L19.9797 14.4653C20.6323 16.7492 22.4175 18.5345 24.7015 19.187L29.9195 20.6779C30.5098 20.8466 30.9167 21.3861 30.9167 22C30.9167 22.6139 30.5098 23.1534 29.9195 23.3221L24.7015 24.813C22.4175 25.4655 20.6323 27.2508 19.9797 29.5347L18.4888 34.7527C18.3202 35.343 17.7807 35.75 17.1667 35.75C16.5528 35.75 16.0133 35.343 15.8447 34.7527L14.3538 29.5347C13.7012 27.2508 11.9159 25.4655 9.63202 24.813L4.41401 23.3221C3.82372 23.1534 3.41675 22.6139 3.41675 22C3.41675 21.3861 3.82372 20.8466 4.41401 20.6779L9.63202 19.187C11.916 18.5345 13.7012 16.7492 14.3538 14.4653L15.8447 9.24726C16.0133 8.65697 16.5528 8.25 17.1667 8.25Z" fill="white"/>
<path fill-rule="evenodd" clip-rule="evenodd" d="M33.6667 2.75C34.2977 2.75 34.8477 3.17941 35.0007 3.79151L35.4753 5.68986C35.9063 7.41411 37.2526 8.76041 38.9769 9.19147L40.8752 9.66605C41.4873 9.81908 41.9167 10.3691 41.9167 11C41.9167 11.6309 41.4873 12.1809 40.8752 12.3339L38.9769 12.8085C37.2526 13.2396 35.9063 14.5859 35.4753 16.3101L35.0007 18.2085C34.8477 18.8206 34.2977 19.25 33.6667 19.25C33.0358 19.25 32.4858 18.8206 32.3328 18.2085L31.8582 16.3101C31.4272 14.5859 30.0809 13.2396 28.3566 12.8085L26.4583 12.3339C25.8462 12.1809 25.4167 11.6309 25.4167 11C25.4167 10.3691 25.8462 9.81908 26.4583 9.66605L28.3566 9.19147C30.0809 8.76041 31.4272 7.41411 31.8582 5.68986L32.3328 3.79151C32.4858 3.17941 33.0358 2.75 33.6667 2.75Z" fill="white"/>
<path fill-rule="evenodd" clip-rule="evenodd" d="M30.9167 27.5C31.5086 27.5 32.034 27.8787 32.2212 28.4402L32.944 30.6085C33.2177 31.4297 33.8621 32.0741 34.6832 32.3478L36.8516 33.0706C37.413 33.2577 37.7917 33.7832 37.7917 34.375C37.7917 34.9668 37.413 35.4923 36.8516 35.6794L34.6832 36.4022C33.8621 36.6759 33.2177 37.3203 32.944 38.1415L32.2212 40.3098C32.034 40.8713 31.5086 41.25 30.9167 41.25C30.3249 41.25 29.7995 40.8713 29.6123 40.3098L28.8895 38.1415C28.6158 37.3203 27.9714 36.6759 27.1503 36.4022L24.9819 35.6794C24.4205 35.4923 24.0417 34.9668 24.0417 34.375C24.0417 33.7832 24.4205 33.2577 24.9819 33.0706L27.1503 32.3478C27.9714 32.0741 28.6158 31.4297 28.8895 30.6085L29.6123 28.4402C29.7995 27.8787 30.3249 27.5 30.9167 27.5Z" fill="white"/>
</svg>
