<svg width="45" height="44" viewBox="0 0 45 44" fill="none" xmlns="http://www.w3.org/2000/svg">
<path fill-rule="evenodd" clip-rule="evenodd" d="M22.3334 2.75C23.0928 2.75 23.7084 3.36561 23.7084 4.125V8.25C23.7084 9.00939 23.0928 9.625 22.3334 9.625C21.574 9.625 20.9584 9.00939 20.9584 8.25V4.125C20.9584 3.36561 21.574 2.75 22.3334 2.75ZM10.6661 7.58274C11.2031 7.04577 12.0737 7.04577 12.6107 7.58274L15.5275 10.4996C16.0644 11.0365 16.0644 11.9071 15.5275 12.4441C14.9905 12.9811 14.1199 12.9811 13.5829 12.4441L10.6661 9.52728C10.1291 8.99031 10.1291 8.11971 10.6661 7.58274ZM34.0006 7.58274C34.5376 8.11971 34.5376 8.99031 34.0006 9.52728L31.0838 12.4441C30.5468 12.9811 29.6763 12.9811 29.1393 12.4441C28.6023 11.9071 28.6023 11.0365 29.1393 10.4996L32.0561 7.58274C32.5931 7.04577 33.4637 7.04577 34.0006 7.58274ZM21.5054 15.8249C22.0771 15.6718 22.6827 15.9016 23.0088 16.3955L32.5919 30.9098C32.8983 31.3739 32.895 31.9768 32.5835 32.4375C32.272 32.8982 31.7136 33.1259 31.1688 33.0145L27.3238 32.2277L29.2391 39.3758C29.4356 40.1093 29.0003 40.8633 28.2668 41.0598C27.5333 41.2563 26.7793 40.821 26.5828 40.0875L24.6675 32.9395L21.7315 35.5431C21.3154 35.9121 20.718 35.9941 20.2179 35.7509C19.7177 35.5077 19.4134 34.9871 19.4467 34.432L20.4888 17.0707C20.5242 16.4799 20.9337 15.9781 21.5054 15.8249ZM5.83337 19.25C5.83337 18.4906 6.44898 17.875 7.20837 17.875H11.3334C12.0928 17.875 12.7084 18.4906 12.7084 19.25C12.7084 20.0094 12.0928 20.625 11.3334 20.625H7.20837C6.44898 20.625 5.83337 20.0094 5.83337 19.25ZM31.9584 19.25C31.9584 18.4906 32.574 17.875 33.3334 17.875H37.4584C38.2178 17.875 38.8334 18.4906 38.8334 19.25C38.8334 20.0094 38.2178 20.625 37.4584 20.625H33.3334C32.574 20.625 31.9584 20.0094 31.9584 19.25ZM15.5275 26.0559C16.0644 26.5929 16.0644 27.4635 15.5275 28.0004L12.6107 30.9173C12.0737 31.4542 11.2031 31.4542 10.6661 30.9173C10.1291 30.3803 10.1291 29.5097 10.6661 28.9727L13.5829 26.0559C14.1199 25.5189 14.9905 25.5189 15.5275 26.0559Z" fill="white"/>
</svg>
