<svg width="45" height="44" viewBox="0 0 45 44" fill="none" xmlns="http://www.w3.org/2000/svg">
<path d="M12.672 22C12.672 17.0979 12.6602 12.184 12.672 7.2819C12.672 5.26409 13.6928 3.79228 15.4851 3.21068C15.9124 3.06825 16.3753 3.0089 16.8263 3.0089C20.9688 2.99703 25.0993 2.99703 29.2299 3.0089C31.6394 3.02077 33.3961 4.76558 33.3961 7.1632C33.4079 17.0504 33.4079 26.9377 33.3961 36.8368C33.3961 39.2344 31.6394 40.9911 29.2418 40.9911C25.1468 41.003 21.0518 41.003 16.9569 40.9911C14.3931 40.9911 12.6839 39.3056 12.6839 36.7181C12.6602 31.8042 12.672 26.9021 12.672 22ZM23.0459 6.45104C22.2388 6.45104 21.4317 6.45104 20.6245 6.45104C19.9836 6.46291 19.6275 6.75964 19.6156 7.2819C19.6038 7.81602 19.9361 8.18398 20.5533 8.18398C22.2151 8.20772 23.8649 8.20772 25.5266 8.18398C26.1201 8.17211 26.5237 7.76855 26.4999 7.2819C26.4762 6.78338 26.0845 6.45104 25.4791 6.45104C24.6602 6.45104 23.853 6.45104 23.0459 6.45104ZM23.0459 34.095C22.0726 34.095 21.3011 34.8546 21.313 35.816C21.3248 36.7656 22.1201 37.5371 23.0697 37.5252C23.9955 37.5134 24.7432 36.7656 24.7551 35.8279C24.7551 34.8427 24.0192 34.1068 23.0459 34.095Z" fill="white"/>
</svg>
