<svg width="45" height="44" viewBox="0 0 45 44" fill="none" xmlns="http://www.w3.org/2000/svg">
<path d="M11.3334 5.5C8.29581 5.5 5.83337 7.96243 5.83337 11V15.125C5.83337 18.1626 8.29581 20.625 11.3334 20.625H15.4584C18.4959 20.625 20.9584 18.1626 20.9584 15.125V11C20.9584 7.96243 18.4959 5.5 15.4584 5.5H11.3334Z" fill="white"/>
<path d="M29.2084 5.5C26.1708 5.5 23.7084 7.96243 23.7084 11V15.125C23.7084 18.1626 26.1708 20.625 29.2084 20.625H33.3334C36.3709 20.625 38.8334 18.1626 38.8334 15.125V11C38.8334 7.96243 36.3709 5.5 33.3334 5.5H29.2084Z" fill="white"/>
<path d="M11.3334 23.375C8.29581 23.375 5.83337 25.8374 5.83337 28.875V33C5.83337 36.0376 8.29581 38.5 11.3334 38.5H15.4584C18.4959 38.5 20.9584 36.0376 20.9584 33V28.875C20.9584 25.8374 18.4959 23.375 15.4584 23.375H11.3334Z" fill="white"/>
<path d="M32.6459 24.75C32.6459 23.9906 32.0303 23.375 31.2709 23.375C30.5115 23.375 29.8959 23.9906 29.8959 24.75V29.5625H25.0834C24.324 29.5625 23.7084 30.1781 23.7084 30.9375C23.7084 31.6969 24.324 32.3125 25.0834 32.3125H29.8959V37.125C29.8959 37.8844 30.5115 38.5 31.2709 38.5C32.0303 38.5 32.6459 37.8844 32.6459 37.125V32.3125H37.4584C38.2178 32.3125 38.8334 31.6969 38.8334 30.9375C38.8334 30.1781 38.2178 29.5625 37.4584 29.5625H32.6459V24.75Z" fill="white"/>
</svg>
