<svg width="44" height="44" viewBox="0 0 44 44" fill="none" xmlns="http://www.w3.org/2000/svg">
<path fill-rule="evenodd" clip-rule="evenodd" d="M9.47125 4.80583V6.37743C7.57397 6.64885 5.69645 6.98176 3.84078 7.37409C3.11932 7.52662 2.64663 8.22112 2.76938 8.94824C3.7052 14.4917 8.3236 18.7822 14.0234 19.2142C15.4638 20.3905 17.1757 21.2496 19.0512 21.6828C18.87 23.8245 18.1436 25.8089 17.0111 27.5H15.6583C13.7598 27.5 12.2208 29.039 12.2208 30.9375V35.75H10.8456C8.56741 35.75 6.72058 37.5968 6.72058 39.875C6.72058 40.6344 7.33619 41.25 8.09558 41.25H35.5956C36.355 41.25 36.9706 40.6344 36.9706 39.875C36.9706 37.5968 35.1238 35.75 32.8456 35.75H31.4708V30.9375C31.4708 29.039 29.9318 27.5 28.0333 27.5H26.6795C25.5474 25.8092 24.8214 23.8247 24.6403 21.683C26.5162 21.2499 28.2284 20.3907 29.669 19.2142C35.3689 18.7822 39.9873 14.4917 40.9231 8.94824C41.0459 8.22112 40.5732 7.52662 39.8517 7.37409C37.996 6.98176 36.1185 6.64885 34.2212 6.37743V4.80583C34.2212 4.11223 33.7047 3.52722 33.0164 3.4414C29.3565 2.98502 25.6285 2.75 21.8462 2.75C18.064 2.75 14.3359 2.98502 10.6761 3.4414C9.98783 3.52722 9.47125 4.11223 9.47125 4.80583ZM9.47125 9.625C9.47125 11.818 10.0423 13.8782 11.0429 15.6644C8.5548 14.5506 6.62523 12.4112 5.79338 9.78427C7.01012 9.54847 8.23628 9.33896 9.47125 9.15636V9.625ZM34.2212 9.625V9.15636C35.4562 9.33896 36.6824 9.54847 37.8991 9.78427C37.0673 12.4112 35.1377 14.5506 32.6496 15.6644C33.6502 13.8782 34.2212 11.818 34.2212 9.625Z" fill="white"/>
</svg>
