<svg width="29" height="28" viewBox="0 0 29 28" fill="none" xmlns="http://www.w3.org/2000/svg">
<path fill-rule="evenodd" clip-rule="evenodd" d="M6.88916 14C6.88916 13.3234 7.42194 12.775 8.07916 12.775H18.6113L15.1877 9.57468C14.7139 9.10576 14.6992 8.33028 15.1547 7.8426C15.6102 7.35492 16.3635 7.33972 16.8373 7.80864L22.3906 13.117C22.624 13.3479 22.7558 13.6668 22.7558 14C22.7558 14.3332 22.624 14.6521 22.3906 14.883L16.8373 20.1913C16.3635 20.6603 15.6102 20.6451 15.1547 20.1574C14.6992 19.6697 14.7139 18.8942 15.1877 18.4253L18.6113 15.225H8.07916C7.42194 15.225 6.88916 14.6765 6.88916 14Z" fill="white"/>
</svg>
