<svg width="31" height="31" viewBox="0 0 31 31" fill="none" xmlns="http://www.w3.org/2000/svg">
<path d="M25.6906 10.4009C25.7058 10.6213 25.7058 10.8417 25.7058 11.0641C25.7058 17.8415 20.5464 25.6578 11.1121 25.6578V25.6538C8.32516 25.6579 5.59613 24.8596 3.25 23.3544C3.65524 23.4031 4.06251 23.4275 4.4708 23.4285C6.78037 23.4305 9.02392 22.6556 10.8409 21.2286C8.6461 21.187 6.72146 19.756 6.04911 17.6668C6.81795 17.8151 7.61015 17.7846 8.36477 17.5784C5.97192 17.095 4.25041 14.9926 4.25041 12.551C4.25041 12.5287 4.25041 12.5073 4.25041 12.486C4.96339 12.8831 5.76168 13.1035 6.57826 13.1279C4.32455 11.6217 3.62985 8.62352 4.99081 6.27942C7.59491 9.48377 11.4371 11.4318 15.5616 11.6379C15.1482 9.85651 15.7129 7.98976 17.0455 6.73748C19.1113 4.79557 22.3603 4.8951 24.3022 6.9599C25.4509 6.73341 26.5518 6.31192 27.5594 5.71473C27.1765 6.90201 26.3751 7.91054 25.3046 8.55141C26.3213 8.43157 27.3146 8.15937 28.25 7.74398C27.5614 8.77587 26.694 9.67471 25.6906 10.4009Z" fill="white"/>
</svg>
