<svg width="28" height="28" viewBox="0 0 28 28" fill="none" xmlns="http://www.w3.org/2000/svg">
<g clip-path="url(#clip0_157_9763)">
<path d="M14.4385 9.18009C14.4385 6.77725 14.4385 4.43117 14.4385 2.09456C14.4669 2.06618 14.4952 2.02834 14.5142 2.02834C15.848 2.0378 17.1913 1.98104 18.5157 2.0851C20.1996 2.227 21.4956 3.73113 21.5619 5.45285C21.6281 7.13673 20.4456 8.74493 18.809 9.03819C18.0144 9.18009 17.1819 9.14225 16.3683 9.16117C15.744 9.19901 15.1196 9.18009 14.4385 9.18009Z" fill="white"/>
<path d="M13.1515 2.01896C13.1515 4.4218 13.1515 6.76788 13.1515 9.18964C12.9339 9.18964 12.7258 9.18964 12.5176 9.18964C11.5906 9.18964 10.654 9.18964 9.72695 9.18964C7.64575 9.18018 6.04701 7.64766 5.99971 5.64214C5.96187 3.73122 7.48493 2.12302 9.49991 2.02842C10.6919 1.97166 11.8933 2.01896 13.1515 2.01896Z" fill="white"/>
<path d="M13.1419 10.4572C13.1419 12.8506 13.1419 15.1872 13.1419 17.6563C11.5999 17.5806 10.058 17.6374 8.57274 17.382C6.94563 17.0982 5.89557 15.4616 6.01855 13.825C6.15099 11.9992 7.40917 10.6181 9.1498 10.4762C10.4647 10.3721 11.7891 10.4572 13.1419 10.4572Z" fill="white"/>
<path d="M13.218 18.8293C13.1707 20.3145 13.2275 21.7619 13.0478 23.162C12.8302 24.8175 11.1841 26.0473 9.52863 25.9905C7.75016 25.9337 6.29332 24.6377 6.06628 22.9065C5.77302 20.7307 7.4096 18.8387 9.60431 18.8198C10.7679 18.8293 11.9315 18.8293 13.218 18.8293Z" fill="white"/>
<path d="M17.9759 17.5806C16.0083 17.5712 14.4095 15.9535 14.419 13.9858C14.4284 12.0276 16.0461 10.4194 18.0138 10.4289C19.9815 10.4383 21.5802 12.056 21.5707 14.0237C21.5613 15.9913 19.9436 17.5901 17.9759 17.5806Z" fill="white"/>
</g>
<defs>
<clipPath id="clip0_157_9763">
<rect width="15.5711" height="24" fill="white" transform="translate(6 2)"/>
</clipPath>
</defs>
</svg>
