<svg width="28" height="28" viewBox="0 0 28 28" fill="none" xmlns="http://www.w3.org/2000/svg">
<g clip-path="url(#clip0_157_9774)">
<path d="M3 2C10.1075 2 17.1623 2 24.2473 2C24.2172 2.534 24.1871 3.03792 24.1495 3.54936C23.9314 6.57286 23.7057 9.59636 23.4951 12.6199C23.3071 15.2824 23.1341 17.9448 22.9536 20.5998C22.9085 21.3143 22.8408 22.0213 22.8032 22.7358C22.7882 22.9765 22.6904 23.0743 22.4647 23.142C19.5992 24.0746 16.7487 25.0298 13.8831 25.9624C13.7327 26.015 13.5296 26.0075 13.3792 25.9624C10.5437 25.0373 7.70824 24.0971 4.86525 23.172C4.57192 23.0743 4.48167 22.9238 4.4591 22.6456C4.36885 21.2316 4.26355 19.8251 4.16578 18.4112C4.00031 16.0269 3.83485 13.6427 3.66186 11.251C3.52648 9.26543 3.38358 7.27985 3.2482 5.29426C3.16547 4.21122 3.08273 3.12817 3 2ZM7.68568 17.6139C7.68568 17.7568 7.67816 17.8772 7.68568 17.9975C7.73081 18.697 7.7985 19.3964 7.82106 20.0959C7.82858 20.3516 7.91883 20.4644 8.15199 20.5396C9.91194 21.1188 11.6644 21.7054 13.4168 22.2845C13.5371 22.3222 13.6951 22.3372 13.8079 22.2996C15.5904 21.7129 17.3654 21.1112 19.1479 20.5321C19.366 20.4569 19.4262 20.3516 19.4412 20.1335C19.5992 17.8621 19.7722 15.5832 19.9376 13.3118C19.9677 12.8681 19.9828 12.4243 20.0053 11.9279C16.681 11.9279 13.3867 11.9279 10.0774 11.9279C9.99467 10.702 9.91194 9.52115 9.82921 8.30273C13.3341 8.30273 16.7863 8.30273 20.2761 8.30273C20.3438 7.36258 20.4039 6.46004 20.4716 5.54246C15.8913 5.54246 11.356 5.54246 6.79818 5.54246C7.0163 8.62614 7.23441 11.6872 7.445 14.7709C10.6415 14.7709 13.7929 14.7709 16.9893 14.7709C16.9066 15.9141 16.8389 17.0197 16.7411 18.1254C16.7336 18.2382 16.5757 18.4036 16.4553 18.4412C15.6205 18.7346 14.7781 19.0204 13.9282 19.2761C13.7402 19.3363 13.5071 19.3287 13.319 19.2686C12.6346 19.0655 11.9727 18.7872 11.2883 18.6142C10.7468 18.4788 10.4083 18.2607 10.4535 17.659C10.4535 17.644 10.4234 17.6214 10.4083 17.5989C9.51332 17.6139 8.61078 17.6139 7.68568 17.6139Z" fill="white"/>
</g>
<defs>
<clipPath id="clip0_157_9774">
<rect width="21.2473" height="24" fill="white" transform="translate(3 2)"/>
</clipPath>
</defs>
</svg>
