<svg width="28" height="28" viewBox="0 0 28 28" fill="none" xmlns="http://www.w3.org/2000/svg">
<g clip-path="url(#clip0_157_9781)">
<path d="M3.00752 2C10.0226 2 17.0226 2 24.0376 2C23.9624 2.94737 23.8872 3.86466 23.8045 4.78947C23.6917 6.11278 23.5714 7.43609 23.4511 8.75188C23.2632 10.8722 23.0677 12.9925 22.8797 15.1128C22.7368 16.7068 22.609 18.3083 22.4662 19.9023C22.3684 21.0602 22.2632 22.2256 22.1429 23.3835C22.1278 23.5038 21.985 23.6767 21.8722 23.7068C19.1805 24.4737 16.4812 25.2256 13.782 25.9699C13.594 26.0226 13.3609 26.0075 13.1654 25.9549C10.5188 25.2105 7.87218 24.4662 5.21804 23.7293C4.98496 23.6692 4.88722 23.5789 4.86466 23.3308C4.66917 20.985 4.46617 18.6391 4.25564 16.2932C4 13.3158 3.7218 10.3383 3.45113 7.3609C3.29323 5.62406 3.15038 3.89474 3 2.15789C3 2.11278 3.00752 2.06015 3.00752 2ZM7.7218 15.6992C7.7218 15.8421 7.71429 15.9699 7.7218 16.0902C7.82707 17.2481 7.93985 18.406 8.03008 19.5714C8.05263 19.8571 8.14286 19.9774 8.42105 20.0526C10.0601 20.4887 11.6992 20.9474 13.3383 21.3985C13.4286 21.4211 13.5338 21.4511 13.6241 21.4286C15.3383 20.9624 17.0451 20.4887 18.7519 20.0075C18.8496 19.9774 18.9774 19.8421 18.985 19.7444C19.1504 18.0376 19.3083 16.3308 19.4586 14.6241C19.6015 13.0301 19.7368 11.4286 19.8797 9.83459C19.9774 8.71429 20.0752 7.59399 20.1805 6.45865C15.7293 6.45865 11.3083 6.45865 6.86466 6.45865C6.91729 7.28571 6.96992 8.09023 7.03008 8.93233C10.4737 8.93233 13.8797 8.93233 17.3158 8.93233C17.2481 9.83459 17.1805 10.7068 17.1203 11.609C13.8346 11.6541 10.5865 11.6917 7.30075 11.7368C7.39098 12.594 7.4812 13.406 7.57143 14.2556C10.6992 14.2556 13.782 14.2556 16.9023 14.2556C16.7744 15.4211 16.6617 16.5564 16.5188 17.6842C16.5038 17.7895 16.3684 17.9398 16.2556 17.9699C15.6466 18.1579 15.015 18.2782 14.4135 18.4887C13.782 18.7068 13.1805 18.6767 12.5564 18.4737C12.015 18.2932 11.4511 18.1429 10.8947 18.0226C10.6241 17.9624 10.5338 17.8346 10.5188 17.5714C10.4812 16.9624 10.4135 16.3534 10.3609 15.7368C9.45113 15.6992 8.59398 15.6992 7.7218 15.6992Z" fill="white"/>
</g>
<defs>
<clipPath id="clip0_157_9781">
<rect width="21.0451" height="24" fill="white" transform="translate(3 2)"/>
</clipPath>
</defs>
</svg>
