<svg width="28" height="28" viewBox="0 0 28 28" fill="none" xmlns="http://www.w3.org/2000/svg">
<g clip-path="url(#clip0_157_9788)">
<path d="M1 2C9.04511 2 17.0451 2 25.0677 2C24.9925 2.91729 24.9173 3.81203 24.8346 4.71429C24.7218 6 24.6015 7.2782 24.4812 8.56391C24.2857 10.6466 24.0902 12.7293 23.9023 14.8045C23.7594 16.3609 23.6316 17.9248 23.4887 19.4812C23.3609 20.9023 23.2331 22.3233 23.1053 23.7444C23.0827 23.9624 23.0075 24.0526 22.7669 24.1053C19.6917 24.7143 16.6165 25.3383 13.5338 25.9474C13.2331 26.0075 12.9098 26.0226 12.609 25.9624C9.78947 25.406 6.96992 24.8346 4.15038 24.2632C3.86466 24.203 3.58647 24.1278 3.30075 24.1053C3.03759 24.0827 2.96241 23.9624 2.93985 23.7293C2.78947 21.9699 2.6391 20.2105 2.4812 18.4586C2.26316 16.0902 2.03759 13.7218 1.81955 11.3534C1.65414 9.27068 1.4812 7.18045 1.30075 5.10526C1.21053 4.08271 1.10526 3.06015 1 2ZM17.8496 15.0075C17.7218 16.3835 17.6015 17.6992 17.4737 19.0226C16.406 19.2331 15.3759 19.4361 14.3534 19.6541C14.2406 19.6767 14.0526 19.7744 14.0526 19.8496C14.0301 20.4662 14.0376 21.0902 14.0376 21.7519C15.8421 21.391 17.5865 21.0451 19.3383 20.6917C19.5714 18.1278 19.8045 15.594 20.0376 13C18.6767 13 17.3684 13 16.0752 13C16.0752 11.3008 16.0752 9.65413 16.0752 7.97744C17.5639 7.97744 19.0226 7.97744 20.5038 7.97744C20.5564 7.30075 20.609 6.66165 20.6692 6.00752C18.4361 6.00752 16.2556 6.00752 14.0752 6.00752C14.0752 9.01504 14.0752 12 14.0752 15.0075C15.3308 15.0075 16.5714 15.0075 17.8496 15.0075ZM10.0226 6C10.0226 10.4511 10.0226 14.8571 10.0226 19.3008C9.52632 19.203 9.06767 19.1128 8.6015 19.0226C8.53383 18.3459 8.47368 17.6992 8.41353 17.0376C7.74436 17.0376 7.09774 17.0376 6.40601 17.0376C6.5188 18.2632 6.62406 19.4662 6.73684 20.6917C8.49624 21.0451 10.2481 21.391 12.015 21.7444C12.015 16.4737 12.015 11.2406 12.015 6C11.3459 6 10.7143 6 10.0226 6Z" fill="white"/>
</g>
<defs>
<clipPath id="clip0_157_9788">
<rect width="24.0677" height="24" fill="white" transform="translate(1 2)"/>
</clipPath>
</defs>
</svg>
