<svg width="44" height="44" viewBox="0 0 44 44" fill="none" xmlns="http://www.w3.org/2000/svg">
<path fill-rule="evenodd" clip-rule="evenodd" d="M26.7946 2.92402C27.3469 3.23191 27.6179 3.87676 27.4516 4.48677L23.8002 17.875H37.125C37.6726 17.875 38.1679 18.1998 38.3861 18.702C38.6043 19.2041 38.5038 19.7879 38.1302 20.1882L18.8802 40.8132C18.4488 41.2754 17.7577 41.3839 17.2055 41.076C16.6532 40.7681 16.3821 40.1232 16.5485 39.5132L20.1998 26.125H6.87503C6.32751 26.125 5.83217 25.8001 5.61395 25.298C5.39574 24.7958 5.49625 24.2121 5.86983 23.8118L25.1198 3.1868C25.5513 2.72455 26.2423 2.61612 26.7946 2.92402Z" fill="white"/>
</svg>
