<svg width="44" height="44" viewBox="0 0 44 44" fill="none" xmlns="http://www.w3.org/2000/svg">
<path fill-rule="evenodd" clip-rule="evenodd" d="M23.7661 4.19061C23.5429 3.89123 23.2075 3.69554 22.837 3.64852C22.4665 3.6015 22.0928 3.7072 21.8019 3.94131C18.3732 6.70015 15.9819 10.7026 15.3142 15.265C14.1105 14.3924 13.0533 13.3293 12.1873 12.1198C11.949 11.7871 11.5749 11.5778 11.1667 11.5488C10.7585 11.5198 10.3586 11.6741 10.0758 11.9698C7.24253 14.9314 5.5 18.9509 5.5 23.3744C5.5 32.4871 12.8873 39.8744 22 39.8744C31.1127 39.8744 38.5 32.4871 38.5 23.3744C38.5 16.6627 34.4929 10.89 28.7463 8.31244C26.7127 7.3197 25.0335 5.89021 23.7661 4.19061ZM28.875 26.1251C28.875 29.922 25.797 33.0001 22 33.0001C18.203 33.0001 15.125 29.922 15.125 26.1251C15.125 25.3746 15.2452 24.6523 15.4675 23.9762C16.6197 24.828 17.9441 25.4601 19.3789 25.8109C19.7747 23.2428 21.0587 20.9677 22.9073 19.3094C26.2754 19.7535 28.875 22.6357 28.875 26.1251Z" fill="white"/>
</svg>
