<svg width="44" height="44" viewBox="0 0 44 44" fill="none" xmlns="http://www.w3.org/2000/svg">
<g clip-path="url(#clip0_194_165)">
<path d="M14.8387 26.6803C15.1472 26.443 15.3607 26.2651 15.6336 26.0515C15.9421 27.1904 16.2268 28.2819 16.5471 29.3734C16.7844 30.1801 17.0098 31.0106 17.342 31.7818C17.864 32.9444 18.7538 33.8105 19.8334 34.4867C20.2724 34.7596 20.6639 35.1274 21.0554 35.4714C21.5418 35.8985 22.0164 36.3375 22.5265 36.8002C22.4198 36.8832 22.313 36.99 22.1943 37.0731C20.4385 38.295 18.6945 39.517 16.9386 40.7153C16.7014 40.8814 16.3692 40.9881 16.0726 41C15.0641 41.0356 14.0557 41 13.0473 41.0237C12.7151 41.0237 12.5253 40.9407 12.3829 40.6085C11.2321 37.9273 10.0695 35.246 8.89493 32.5766C8.7407 32.2326 8.7407 31.9835 9.08475 31.7818C10.2711 31.0937 10.4966 30.0734 10.461 28.7565C10.3661 24.96 10.4254 21.1636 10.4372 17.3672C10.4372 16.9875 10.3305 16.774 9.98641 16.5841C8.66952 15.8367 8.00514 14.6622 7.80345 13.1199C7.22212 13.1199 6.62893 13.1199 5.98828 13.1199C6.00015 12.3487 6.00015 11.6606 6.00015 10.8776C6.97298 10.8776 7.95768 10.8776 9.02543 10.8776C8.97798 8.03028 9.83218 5.51514 11.3389 3C11.9084 4.35248 12.549 5.55073 12.9168 6.82017C13.2964 8.0896 13.4151 9.44209 13.6642 10.842C14.4828 10.842 15.3963 10.842 16.3454 10.842C16.3454 11.6132 16.3454 12.3131 16.3454 13.0843C15.6455 13.0843 14.9574 13.0843 14.2099 13.0843C14.4235 17.6282 14.6252 22.089 14.8387 26.6803Z" fill="white"/>
<path d="M19.9637 26.2532C19.7502 24.7702 18.6113 24.3075 17.5079 23.8211C17.1876 23.6787 17.0808 23.4889 17.0927 23.1448C17.1164 22.4923 17.1045 21.8517 17.1045 21.1161C17.5791 21.3534 18.0536 21.5907 18.5401 21.8279C18.6587 21.8873 18.8011 21.9347 18.9078 22.0178C19.7383 22.6347 20.5213 22.5991 21.2688 21.7449C20.6044 20.5941 19.9044 19.384 19.157 18.1027C19.7976 17.7349 20.4146 17.3671 21.0789 16.9756C21.8145 18.2213 22.5263 19.4433 23.25 20.6771C23.8076 20.5229 24.3296 20.3806 24.9228 20.2263C24.9228 18.3756 24.9228 16.5129 24.9228 14.6028C25.694 14.6028 26.394 14.6028 27.1532 14.6028C27.1532 16.4655 27.1532 18.3281 27.1532 20.2026C27.7583 20.3687 28.304 20.5229 28.8854 20.689C29.5972 19.4789 30.309 18.2569 31.0565 16.9875C31.709 17.3671 32.3259 17.723 32.9784 18.1027C32.2547 19.3484 31.5547 20.5585 30.831 21.8042C31.1395 21.994 31.4242 22.1483 31.6852 22.35C31.9581 22.5516 32.1835 22.5516 32.4801 22.3855C33.6191 21.7924 34.7699 21.2348 35.9681 20.6416C36.3003 21.3059 36.6088 21.9229 36.9647 22.6228C36.502 22.8601 36.0749 23.0855 35.6359 23.2991C35.3156 23.4652 35.0071 23.6313 34.6868 23.7736C33.5597 24.2956 32.3852 24.7583 32.1361 26.2294C28.0786 23.9041 24.0805 23.8804 19.9637 26.2532Z" fill="white"/>
<path d="M30.6406 29.8598C30.5101 30.7733 30.4983 31.7225 30.2136 32.5767C29.5254 34.6172 27.4255 35.7562 25.2545 35.3884C23.2495 35.0562 21.6716 33.241 21.6122 31.1649C21.5885 30.2039 21.5885 29.231 21.6241 28.2582C21.6241 28.0802 21.7902 27.8074 21.9444 27.7243C24.685 26.3481 27.4374 26.3363 30.178 27.7125C30.3559 27.7955 30.4983 28.0921 30.522 28.2938C30.5695 28.8039 30.5339 29.3141 30.5339 29.8361C30.5695 29.848 30.6051 29.8598 30.6406 29.8598Z" fill="white"/>
<path d="M37.2022 40.9644C31.6855 40.9644 26.1688 40.9644 20.5098 40.9644C21.5538 40.2407 22.4792 39.5882 23.4164 38.9357C23.5944 38.8171 23.7842 38.6984 23.9503 38.5561C24.6977 37.9391 25.4926 37.6425 26.5248 37.6425C28.2213 37.6425 29.6687 36.8595 30.8788 35.6613C31.0568 35.4952 31.3415 35.3409 31.5788 35.3409C34.5447 35.4003 37.0243 37.7849 37.226 40.7509C37.2378 40.8221 37.226 40.8814 37.2022 40.9644Z" fill="white"/>
</g>
<defs>
<clipPath id="clip0_194_165">
<rect width="31.2376" height="38" fill="white" transform="translate(6 3)"/>
</clipPath>
</defs>
</svg>
