<svg width="44" height="44" viewBox="0 0 44 44" fill="none" xmlns="http://www.w3.org/2000/svg">
<g clip-path="url(#clip0_194_138)">
<path d="M30.6241 20.412C30.6241 25.8351 30.6241 31.2458 30.6241 36.669C30.6241 37.5477 30.5613 37.7235 29.7077 37.8741C28.7912 38.0373 27.8497 38.1001 26.9207 38.1252C26.1675 38.1503 25.9667 37.8741 25.9667 37.1335C25.9667 33.3925 25.9667 29.6389 25.9667 25.8979C25.9667 24.7555 25.6654 24.4542 24.523 24.4417C22.8533 24.4417 21.1712 24.4417 19.5015 24.4417C18.6102 24.4417 18.2587 24.8057 18.2461 25.7096C18.2336 26.739 18.2336 27.7559 18.2461 28.7853C18.2587 29.3753 17.9951 29.6264 17.4176 29.6138C16.4761 29.6013 15.5345 29.6138 14.593 29.6138C13.7143 29.6138 13.5762 29.4883 13.5762 28.597C13.5762 20.7132 13.5762 12.8295 13.5762 4.93327C13.5762 4.55666 13.5762 4.18005 13.5762 3.80344C13.5762 3.28873 13.8398 3.01255 14.3419 3.01255C15.3839 3 16.4384 3 17.4804 3.01255C17.9825 3.01255 18.2461 3.27618 18.2461 3.79088C18.2461 4.519 18.2336 5.25966 18.2461 5.98778C18.2587 6.80377 18.6228 7.19293 19.4262 7.20548C21.2088 7.21804 22.9789 7.21804 24.7615 7.20548C25.6026 7.19293 25.9541 6.81632 25.9667 5.95012C25.9792 5.23456 25.9792 4.53155 25.9667 3.81599C25.9541 3.25107 26.2303 3.01255 26.7701 3C27.7367 3 28.6908 3 29.6574 3C30.4232 3 30.6241 3.20086 30.6241 3.96663C30.6241 6.26396 30.6241 8.57384 30.6241 10.8712C30.6241 14.0472 30.6241 17.2359 30.6241 20.412ZM22.1127 11.3859C21.1963 11.3859 20.2673 11.3859 19.3509 11.3859C17.9197 11.3984 16.9531 12.3399 16.9406 13.7711C16.928 15.1143 16.928 16.445 16.9406 17.7882C16.9531 19.257 17.8193 20.1985 19.2881 20.2488C21.146 20.299 23.0165 20.299 24.8745 20.2488C26.3809 20.2111 27.2471 19.2696 27.2597 17.7631C27.2722 16.4073 27.2722 15.039 27.2597 13.6832C27.2346 12.365 26.2554 11.3984 24.9498 11.3859C23.9957 11.3859 23.0542 11.3859 22.1127 11.3859Z" fill="white"/>
<path d="M13.3367 30.9822C16.7513 30.9822 20.1534 30.9822 23.568 30.9822C24.4468 30.9822 24.61 31.1454 24.61 31.999C24.61 32.9657 24.61 33.9197 24.61 34.8864C24.61 35.6145 24.3965 35.853 23.6935 35.853C16.7765 35.853 9.84682 35.853 2.92974 35.853C2.25184 35.853 2.02588 35.6145 2.01332 34.9491C2.00077 33.9197 2.00077 32.9029 2.01332 31.8735C2.01332 31.1956 2.22673 30.9947 2.92974 30.9947C6.39456 30.9822 9.85937 30.9822 13.3367 30.9822Z" fill="white"/>
<path d="M3.59506 13.1308C3.29378 13.1685 3.09292 13.181 2.89206 13.2187C2.41502 13.294 2.08862 13.1182 2.02585 12.6412C1.96309 12.1893 2.26437 11.9884 2.6912 11.888C4.047 11.549 5.41535 11.2477 6.73349 10.8084C8.27759 10.2686 9.65849 9.3898 10.9013 8.31018C11.2779 7.98379 11.6796 7.78293 12.0437 8.23486C12.3952 8.66169 12.1567 9.05085 11.755 9.35214C11.3281 9.67854 10.9139 10.0551 10.4494 10.3313C10.0226 10.5824 9.92212 10.8837 9.92212 11.3482C9.93467 17.035 9.93467 22.7218 9.93467 28.4212C9.93467 28.6472 9.99744 28.9233 9.89701 29.0991C9.77148 29.3125 9.50785 29.5761 9.29444 29.5761C9.08102 29.5761 8.80484 29.3376 8.66675 29.1242C8.56632 28.961 8.61654 28.6723 8.61654 28.4463C8.61654 23.0733 8.61654 17.7003 8.61654 12.3148C8.61654 12.0637 8.61654 11.8252 8.61654 11.5239C7.67501 11.8754 6.80881 12.2269 5.93005 12.5282C4.92576 12.8797 4.9132 12.8546 4.9132 13.8966C4.9132 18.667 4.9132 23.4374 4.9132 28.2078C4.9132 28.3584 4.9132 28.4965 4.9132 28.6472C4.9132 29.1367 4.90065 29.6263 4.22275 29.6012C3.60762 29.5887 3.58251 29.1242 3.58251 28.6597C3.58251 24.2408 3.58251 19.8345 3.58251 15.4156C3.59506 14.6875 3.59506 13.9468 3.59506 13.1308Z" fill="white"/>
<path d="M40.5786 13.1183C40.5786 13.4572 40.5786 13.7083 40.5786 13.9468C40.5786 18.7549 40.5786 23.5629 40.5786 28.3835C40.5786 28.5719 40.5786 28.7602 40.566 28.9485C40.5409 29.3753 40.3275 29.6138 39.8881 29.6013C39.4738 29.6013 39.2855 29.3627 39.2604 28.9736C39.2479 28.7602 39.2479 28.5593 39.2479 28.3459C39.2479 23.3872 39.2353 18.4285 39.2604 13.4698C39.2604 12.9551 39.1098 12.7668 38.6202 12.6161C37.6033 12.3148 36.6242 11.9131 35.5445 11.524C35.5445 11.8001 35.5445 12.0387 35.5445 12.2772C35.5445 17.6376 35.5445 22.9855 35.5445 28.3459C35.5445 28.5593 35.5571 28.7602 35.532 28.9736C35.5069 29.3627 35.2935 29.5887 34.8918 29.6013C34.49 29.6138 34.2641 29.4004 34.239 28.9987C34.2264 28.7853 34.2264 28.5844 34.2264 28.371C34.2264 22.6842 34.2264 16.9974 34.239 11.298C34.239 10.8461 34.126 10.5699 33.7368 10.3314C33.2221 10.005 32.7576 9.61579 32.2931 9.22663C31.9291 8.93789 31.8412 8.54873 32.155 8.18467C32.4563 7.84572 32.8204 7.92104 33.1593 8.19722C35.5069 10.2058 38.2436 11.3608 41.2816 11.8252C41.4071 11.8503 41.5829 11.8252 41.6456 11.9006C41.8339 12.1391 42.1478 12.4278 42.1101 12.6538C42.0725 12.8797 41.6958 13.0932 41.4197 13.1936C41.2188 13.2815 40.9426 13.1685 40.5786 13.1183Z" fill="white"/>
<path d="M38.6833 41C37.5158 40.7489 36.2981 40.4853 35.0804 40.2217C33.6242 39.8953 32.1805 39.9455 30.7494 40.3849C28.8287 40.9749 26.8828 41.0879 24.9496 40.4728C23.054 39.8702 21.1835 39.8702 19.2879 40.4602C17.5052 41.0251 15.6975 41.0628 13.9149 40.4979C11.9063 39.8576 9.93537 39.9204 7.93934 40.5355C6.19437 41.0753 4.43686 40.9749 2.6919 40.4728C2.26507 40.3472 1.95123 40.1087 2.07677 39.6191C2.2023 39.117 2.60402 39.0416 3.01829 39.1672C4.85113 39.707 6.63375 39.5689 8.44148 39.0165C10.2869 38.4642 12.1448 38.552 13.9902 39.1295C15.6975 39.6693 17.4174 39.6568 19.1121 39.117C21.1333 38.4767 23.1293 38.4893 25.1504 39.1295C26.7448 39.6442 28.3642 39.6944 29.9711 39.1923C32.1554 38.5018 34.3146 38.5144 36.499 39.2048C37.9677 39.6693 39.4616 39.6317 40.9555 39.2425C41.0936 39.2048 41.2694 39.1044 41.3824 39.1546C41.6585 39.2676 42.0351 39.3931 42.1356 39.6191C42.3113 39.9832 42.0602 40.3347 41.6711 40.4225C40.7044 40.6234 39.7378 40.7866 38.6833 41Z" fill="white"/>
<path d="M37.0255 30.9821C38.4441 30.9821 39.8752 30.9821 41.2938 30.9821C41.9465 30.9821 42.1725 31.1956 42.1725 31.8358C42.1851 32.8777 42.1851 33.9323 42.1725 34.9742C42.16 35.6019 41.934 35.8404 41.2938 35.8404C38.4692 35.853 35.6446 35.8404 32.82 35.8404C32.2677 35.8404 31.9789 35.5768 31.9789 34.9868C31.9915 33.9197 31.9915 32.8526 31.9789 31.7856C31.9664 31.1956 32.2426 30.957 32.82 30.9696C34.226 30.9947 35.632 30.9821 37.0255 30.9821Z" fill="white"/>
<path d="M15.9237 37.146C16.5263 37.146 17.1289 37.1209 17.7314 37.1586C17.8946 37.1711 18.1457 37.3469 18.1959 37.4975C18.3089 37.7863 18.1583 37.9871 17.8068 38.0624C16.4384 38.3261 15.1203 38.1252 13.8147 37.6858C13.7143 37.6482 13.6515 37.485 13.5762 37.372C13.7017 37.2967 13.8398 37.1586 13.9653 37.1586C14.6307 37.1335 15.2709 37.146 15.9237 37.146Z" fill="white"/>
</g>
<defs>
<clipPath id="clip0_194_138">
<rect width="40.1843" height="38" fill="white" transform="translate(2 3)"/>
</clipPath>
</defs>
</svg>
